<?xml version="1.0" encoding="iso-8859-1"?>
<!-- Generator: Adobe Illustrator 21.0.0, SVG Export Plug-In . SVG Version: 6.00 Build 0)  -->
<svg version="1.1" id="Layer_1" xmlns="http://www.w3.org/2000/svg" xmlns:xlink="http://www.w3.org/1999/xlink" x="0px" y="0px"
	 viewBox="0 0 24 24" enable-background="new 0 0 24 24" xml:space="preserve">
<path fill="#303C42" d="M23.7070313,1.5859375l-1.2929688-1.2929688c-0.3769531-0.3779297-1.0371094-0.3779297-1.4140625,0
	l-2.4394531,2.4394531c-0.6230583,0.6234741-0.7182007,1.5697021-0.3006592,2.3006592l-1.9608154,1.9608154
	C15.2876587,3.1768799,13.3866577,0,12,0c-1.9746094,0-5,6.4365234-5,12c0,1.2714844,0.1636353,2.5865479,0.4310303,3.8619385
	l-2.4021606,2.4021606c-0.7277222-0.3989258-1.6963501-0.3040771-2.2964478,0.2964478L0.2929688,21
	C0.1044922,21.1889648,0,21.4399414,0,21.7070313s0.1044922,0.5180664,0.2929688,0.7070313l1.2929688,1.2929688
	C1.7744141,23.8959961,2.0263672,24,2.2929688,24S2.8115234,23.8959961,3,23.7070313l2.4394531-2.4394531
	c0.6230359-0.6234741,0.7182007-1.5697021,0.3006592-2.3006592l1.9608154-1.9608154C8.7123413,20.8231201,10.6132813,24,12,24
	c1.9746094,0,5-6.4365234,5-12c0-1.2714844-0.1635742-2.5866089-0.4309692-3.8619995l2.397583-2.397583
	C19.2531738,5.9050293,19.5751343,6,19.9140625,6c0.5117188,0,0.9921875-0.1992188,1.3535156-0.5605469L23.7070313,3
	C23.8955078,2.8110352,24,2.5600586,24,2.2929688S23.8955078,1.7749023,23.7070313,1.5859375z M1.9394531,23.3535156L2.2929688,23
	c0,0,0,0.0004883,0.0009766,0.0004883L1.9394531,23.3535156z M4.7324219,20.5605469l-2.4394531,2.4389648L1,21.7070313
	l2.4394531-2.4394531C3.6123047,19.0947266,3.8417969,19,4.0859375,19s0.4736328,0.0952148,0.6464844,0.2675781
	C5.0888672,19.6240234,5.0888672,20.2041016,4.7324219,20.5605469z M8,12c0-5.6713867,3.1044922-11,4-11
	c0.6671143,0,2.5587158,2.9588013,3.480957,6.8120117l-1.1144409,1.1144409C13.8222656,7.755249,12.9776001,7,12,7
	c-1.6826172,0-3,2.1962891-3,5c0,0.7311401,0.0933838,1.4169312,0.2556763,2.0372925l-0.9793701,0.9793701
	C8.104248,14.041687,8,13.0270996,8,12z M14,12c0,2.3574219-1.0537109,4-2,4c-0.5883179,0-1.2174683-0.6363525-1.6098022-1.6831665
	l3.5045166-3.5045166C13.9561768,11.1848755,14,11.5757446,14,12z M10.1052856,13.1876831
	C10.0438232,12.8151245,10,12.4242554,10,12c0-2.3574219,1.0537109-4,2-4c0.5883179,0,1.2174683,0.6363525,1.6098022,1.6831665
	L10.1052856,13.1876831z M16,12c0,5.6713867-3.1044922,11-4,11c-0.6671143,0-2.5587158-2.9588013-3.480957-6.8120117
	l1.1144409-1.1144409C10.1777344,16.244751,11.0223999,17,12,17c1.6826172,0,3-2.1962891,3-5
	c0-0.7311401-0.0933838-1.4169312-0.2556763-2.0372925l0.9793701-0.9793701C15.895752,9.958313,16,10.9729004,16,12z
	 M22.0605469,0.6464844L21.7070313,1c0,0,0-0.0004883-0.0009766-0.0004883L22.0605469,0.6464844z M20.5605469,4.7324219
	c-0.3457031,0.3457031-0.9472656,0.3447266-1.2929688,0c-0.3564453-0.3564453-0.3564453-0.9365234,0-1.2929688l2.4394531-2.4389648
	L23,2.2929688L20.5605469,4.7324219z"/>
<g>
</g>
<g>
</g>
<g>
</g>
<g>
</g>
<g>
</g>
<g>
</g>
<g>
</g>
<g>
</g>
<g>
</g>
<g>
</g>
<g>
</g>
<g>
</g>
<g>
</g>
<g>
</g>
<g>
</g>
</svg>
