<svg xmlns="http://www.w3.org/2000/svg" xmlns:xlink="http://www.w3.org/1999/xlink" version="1.1" width="1000" height="1000" viewBox="0 0 1000 1000" xml:space="preserve">
<desc>Created with Fabric.js 3.5.0</desc>
<defs>
</defs>
<rect x="0" y="0" width="100%" height="100%" fill="#ffffff"/>
<g transform="matrix(37.8788 0 0 37.8788 500.0001 500.0001)" id="933341">
<path style="stroke: none; stroke-width: 1; stroke-dasharray: none; stroke-linecap: butt; stroke-dashoffset: 0; stroke-linejoin: miter; stroke-miterlimit: 4; is-custom-font: none; font-file-url: none; fill: rgb(252,238,33); fill-rule: nonzero; opacity: 1;" vector-effect="non-scaling-stroke" transform=" translate(-12, -12)" d="M 23.7070313 1.5859375 l -1.2929688 -1.2929688 c -0.3769531 -0.3779297 -1.0371094 -0.3779297 -1.4140625 0 l -2.4394531 2.4394531 c -0.6230583 0.6234741 -0.7182007 1.5697021 -0.3006592 2.3006592 l -1.9608154 1.9608154 C 15.2876587 3.1768799 13.3866577 0 12 0 c -1.9746094 0 -5 6.4365234 -5 12 c 0 1.2714844 0.1636353 2.5865479 0.4310303 3.8619385 l -2.4021606 2.4021606 c -0.7277222 -0.3989258 -1.6963501 -0.3040771 -2.2964478 0.2964478 L 0.2929688 21 C 0.1044922 21.1889648 0 21.4399414 0 21.7070313 s 0.1044922 0.5180664 0.2929688 0.7070313 l 1.2929688 1.2929688 C 1.7744141 23.8959961 2.0263672 24 2.2929688 24 S 2.8115234 23.8959961 3 23.7070313 l 2.4394531 -2.4394531 c 0.6230359 -0.6234741 0.7182007 -1.5697021 0.3006592 -2.3006592 l 1.9608154 -1.9608154 C 8.7123413 20.8231201 10.6132813 24 12 24 c 1.9746094 0 5 -6.4365234 5 -12 c 0 -1.2714844 -0.1635742 -2.5866089 -0.4309692 -3.8619995 l 2.397583 -2.397583 C 19.2531738 5.9050293 19.5751343 6 19.9140625 6 c 0.5117188 0 0.9921875 -0.1992188 1.3535156 -0.5605469 L 23.7070313 3 C 23.8955078 2.8110352 24 2.5600586 24 2.2929688 S 23.8955078 1.7749023 23.7070313 1.5859375 z M 1.9394531 23.3535156 L 2.2929688 23 c 0 0 0 0.0004883 0.0009766 0.0004883 L 1.9394531 23.3535156 z M 4.7324219 20.5605469 l -2.4394531 2.4389648 L 1 21.7070313 l 2.4394531 -2.4394531 C 3.6123047 19.0947266 3.8417969 19 4.0859375 19 s 0.4736328 0.0952148 0.6464844 0.2675781 C 5.0888672 19.6240234 5.0888672 20.2041016 4.7324219 20.5605469 z M 8 12 c 0 -5.6713867 3.1044922 -11 4 -11 c 0.6671143 0 2.5587158 2.9588013 3.480957 6.8120117 l -1.1144409 1.1144409 C 13.8222656 7.755249 12.9776001 7 12 7 c -1.6826172 0 -3 2.1962891 -3 5 c 0 0.7311401 0.0933838 1.4169312 0.2556763 2.0372925 l -0.9793701 0.9793701 C 8.104248 14.041687 8 13.0270996 8 12 z M 14 12 c 0 2.3574219 -1.0537109 4 -2 4 c -0.5883179 0 -1.2174683 -0.6363525 -1.6098022 -1.6831665 l 3.5045166 -3.5045166 C 13.9561768 11.1848755 14 11.5757446 14 12 z M 10.1052856 13.1876831 C 10.0438232 12.8151245 10 12.4242554 10 12 c 0 -2.3574219 1.0537109 -4 2 -4 c 0.5883179 0 1.2174683 0.6363525 1.6098022 1.6831665 L 10.1052856 13.1876831 z M 16 12 c 0 5.6713867 -3.1044922 11 -4 11 c -0.6671143 0 -2.5587158 -2.9588013 -3.480957 -6.8120117 l 1.1144409 -1.1144409 C 10.1777344 16.244751 11.0223999 17 12 17 c 1.6826172 0 3 -2.1962891 3 -5 c 0 -0.7311401 -0.0933838 -1.4169312 -0.2556763 -2.0372925 l 0.9793701 -0.9793701 C 15.895752 9.958313 16 10.9729004 16 12 z M 22.0605469 0.6464844 L 21.7070313 1 c 0 0 0 -0.0004883 -0.0009766 -0.0004883 L 22.0605469 0.6464844 z M 20.5605469 4.7324219 c -0.3457031 0.3457031 -0.9472656 0.3447266 -1.2929688 0 c -0.3564453 -0.3564453 -0.3564453 -0.9365234 0 -1.2929688 l 2.4394531 -2.4389648 L 23 2.2929688 L 20.5605469 4.7324219 z" stroke-linecap="round"/>
</g>
</svg>