<svg width="100" height="100" viewBox="0 0 100 100" fill="none" xmlns="http://www.w3.org/2000/svg">
<path d="M100 45.975C100 44.607 99.7306 43.2525 99.2071 41.9887C98.6836 40.7249 97.9163 39.5766 96.949 38.6093C95.9817 37.642 94.8334 36.8747 93.5696 36.3512C92.3058 35.8277 90.9513 35.5583 89.5833 35.5583H63.2875C63.123 35.558 62.961 35.5187 62.8146 35.4437C62.6682 35.3686 62.5417 35.26 62.4453 35.1267C62.349 34.9934 62.2856 34.8392 62.2604 34.6766C62.2351 34.5141 62.2487 34.3479 62.3 34.1916C64.6003 28.3617 65.3469 22.0343 64.4667 15.8291C62.0167 7.09997 56.825 4.57914 52.7625 5.14164C50.7672 5.48112 48.9637 6.53516 47.6886 8.10696C46.4135 9.67877 45.7541 11.6609 45.8333 13.6833C45.8333 25.125 36.9625 37.625 29.025 43.1041C28.7471 43.2959 28.52 43.5524 28.3632 43.8514C28.2064 44.1505 28.1247 44.4831 28.125 44.8208V86.9708C28.1249 87.4547 28.2933 87.9236 28.6012 88.2969C28.9091 88.6702 29.3374 88.9247 29.8125 89.0166C31.3 89.3041 32.65 89.5791 33.925 89.85C39.5316 91.1857 45.2782 91.8446 51.0417 91.8125H78.125C86.2792 91.8125 87.5 87.2291 87.5 84.5208C87.5008 83.0842 87.17 81.6669 86.5333 80.3791C88.734 79.2642 90.406 77.326 91.1861 74.9856C91.9663 72.6452 91.7916 70.0915 90.7 67.8791C92.244 67.0947 93.5408 65.8983 94.4469 64.4223C95.3529 62.9464 95.8327 61.2485 95.8333 59.5166C95.8361 57.9558 95.4448 56.4194 94.6958 55.05C96.3051 54.1434 97.6445 52.8253 98.5765 51.2306C99.5086 49.6359 99.9999 47.8221 100 45.975Z" fill="#F2DC0E"/>
<path d="M21.875 44.9333C21.875 43.8283 21.436 42.7684 20.6546 41.987C19.8732 41.2056 18.8134 40.7667 17.7083 40.7667H4.16667C3.0616 40.7667 2.00179 41.2056 1.22039 41.987C0.438987 42.7684 0 43.8283 0 44.9333L0 90.7667C0 91.8717 0.438987 92.9315 1.22039 93.7129C2.00179 94.4943 3.0616 94.9333 4.16667 94.9333H17.7083C18.8134 94.9333 19.8732 94.4943 20.6546 93.7129C21.436 92.9315 21.875 91.8717 21.875 90.7667V44.9333ZM15.625 83.475C15.625 84.0931 15.4417 84.6973 15.0983 85.2112C14.755 85.7251 14.2669 86.1256 13.6959 86.3621C13.1249 86.5986 12.4965 86.6605 11.8903 86.5399C11.2842 86.4194 10.7273 86.1217 10.2903 85.6847C9.85325 85.2477 9.55562 84.6908 9.43505 84.0847C9.31447 83.4785 9.37635 82.8501 9.61288 82.2791C9.8494 81.7081 10.2499 81.22 10.7638 80.8767C11.2777 80.5333 11.8819 80.35 12.5 80.35C13.3288 80.35 14.1237 80.6792 14.7097 81.2653C15.2958 81.8513 15.625 82.6462 15.625 83.475Z" fill="#F2DC0E"/>
</svg>
