<svg width="90" height="73" viewBox="0 0 90 73" fill="none" xmlns="http://www.w3.org/2000/svg">
<path d="M41.7134 42.9511C46.1068 39.3876 48.4811 35.5359 47.0167 34.348C45.5522 33.1602 40.8036 35.0861 36.4102 38.6496C32.0168 42.2131 29.6425 46.0648 31.1069 47.2526C32.5714 48.4404 37.3201 46.5146 41.7134 42.9511Z" fill="#F2DC0E"/>
<path d="M71.25 47.1458C68.625 45.0167 64.875 44.7125 61.875 45.625L58.5 42.8875C63.375 38.325 67.5 33.4583 71.25 27.9833C71.25 27.6792 71.25 27.6792 71.625 27.375L75 15.8167C75.375 14.9042 75 13.6875 73.875 13.0792C73.125 12.1667 71.625 11.8625 70.5 12.1667L56.25 14.9042C55.875 14.9042 55.5 14.9042 55.5 15.2083C48.75 18.25 42.75 21.5958 37.125 25.8542L33 22.2042C33.375 21.2917 33.75 20.3792 33.75 19.7708C33.75 17.9458 33 16.1208 31.125 14.6L24.375 9.12499C20.625 6.38749 15 6.38749 11.625 9.12499L11.25 9.42916C8.24999 12.4708 8.24999 16.7292 11.625 19.4667L18.375 24.9417C19.875 26.1583 22.125 27.0708 24.75 27.0708C25.875 27.0708 26.625 26.7667 27.75 26.7667L32.25 30.4167C26.625 34.675 22.5 39.5417 18.75 45.0167C18.75 45.3208 18.75 45.3208 18.375 45.625L15 57.1833C14.625 58.0958 15 59.3125 16.125 59.9208C16.875 60.5292 17.625 60.8333 18.75 60.8333C19.125 60.8333 19.5 60.8333 19.5 60.8333L33.75 58.0958C34.125 58.0958 34.5 58.0958 34.5 57.7917C41.25 55.0542 47.25 51.4042 52.875 47.1458L56.625 50.1875C55.5 52.6208 56.25 55.6625 58.875 57.7917L65.625 63.2667C67.125 64.4833 69.375 65.3958 72 65.3958C74.625 65.3958 76.5 64.7875 78.375 63.2667C80.25 61.7458 81 60.225 81 58.0958C81 55.9667 80.25 54.4458 78.375 52.925L71.25 47.1458ZM25.5 20.6833C25.125 20.9875 24 20.9875 23.625 20.6833L16.875 15.2083C16.5 14.9042 16.5 13.9917 16.875 13.6875C16.875 13.6875 16.875 13.6875 16.875 13.3833C17.25 13.0792 18.375 13.0792 18.75 13.3833L25.5 18.8583C26.25 19.4667 26.25 20.075 25.5 20.6833ZM50.25 40.7583C44.625 45.3208 38.25 49.275 31.5 52.0125L24 53.5333L25.875 47.45C29.625 41.975 34.125 36.8042 39.75 32.2417C45.375 27.6792 51.75 23.725 58.5 20.9875L66 19.4667L64.125 25.55C60.375 31.025 55.875 36.1958 50.25 40.7583ZM72.375 58.7042C72 59.0083 70.875 59.0083 70.5 58.7042L63.75 53.2292C63.375 52.925 63.375 52.0125 63.75 51.7083C63.75 51.7083 63.75 51.7083 63.75 51.4042C64.125 51.1 65.25 51.1 65.625 51.4042L72.375 56.8792C73.125 57.4875 73.125 58.0958 72.375 58.7042Z" fill="#F2DC0E"/>
</svg>
