<svg width="85" height="85" viewBox="0 0 85 85" fill="none" xmlns="http://www.w3.org/2000/svg">
<path d="M54.375 31C55 31.625 55.9375 31.9375 56.5625 31.9375C57.1875 31.9375 58.125 31.625 58.75 31L75.625 14.125C76.875 12.875 76.875 11 75.625 9.75C74.375 8.5 72.5 8.5 71.25 9.75L54.375 26.625C53.125 27.875 53.125 29.75 54.375 31Z" fill="#F2DC0E"/>
<path d="M84.0625 22.5625C85.3125 21.3125 85.3125 19.4375 84.0625 18.1875C82.8125 16.9375 80.9375 16.9375 79.6875 18.1875L64.375 33.5C60.3125 37.5625 56.5625 39.75 52.8125 39.75C52.1875 39.75 51.25 39.75 50.625 40.0625L45.3125 34.75C45.3125 34.125 45.625 33.1875 45.625 32.5625C45.9375 29.125 48.125 25.0625 51.875 21L67.1875 5.6875C68.4375 4.4375 68.4375 2.5625 67.1875 1.3125C65.9375 0.0625 64.0625 0.0625 62.8125 1.3125L47.5 16.625C43.4375 20.6875 40.9375 25.0625 39.6875 29.125L12.5 1.9375C11.25 0.6875 9.375 0.6875 8.125 1.9375C-0.9375 11 -0.9375 26 8.125 35.375L34.0625 61.3125C35 62.25 36.25 62.5625 37.5 61.9375C40.9375 60.375 45 61.3125 47.5 64.4375L60.3125 80.375C62.1875 82.875 65 84.125 68.125 84.4375C68.4375 84.4375 68.4375 84.4375 68.75 84.4375C71.5625 84.4375 74.375 83.1875 76.5625 81.3125C78.75 79.125 79.6875 76.625 79.6875 73.5C79.6875 70.375 78.4375 67.875 76.5625 65.6875L56.25 45.375C60.3125 44.4375 64.6875 41.9375 68.75 37.5625L84.0625 22.5625Z" fill="#F2DC0E"/>
<path d="M4.6875 66.625C2.5 68.5 0.937506 71 0.625006 73.8125C0.312506 76.625 1.56251 79.4375 3.43751 81.625C5.31251 83.8125 7.81251 84.75 10.625 84.75C10.9375 84.75 11.25 84.75 11.25 84.75C14.0625 84.4375 16.875 83.1875 18.4375 81L30 66.625L18.75 55.375L4.6875 66.625Z" fill="#F2DC0E"/>
</svg>
