<svg width="100" height="100" viewBox="0 0 100 100" fill="none" xmlns="http://www.w3.org/2000/svg">
<path d="M68.75 58.3333C62.5 58.3333 57.5 60 53.75 62.0833C59.5833 67.0833 62.0833 72.9166 62.5 73.3333L62.9167 74.1666V83.3333H96.25V75C95.8333 75 89.1667 58.3333 68.75 58.3333Z" fill="#F2DC0E"/>
<path d="M68.75 50C76.8041 50 83.3333 43.4708 83.3333 35.4167C83.3333 27.3625 76.8041 20.8333 68.75 20.8333C60.6958 20.8333 54.1666 27.3625 54.1666 35.4167C54.1666 43.4708 60.6958 50 68.75 50Z" fill="#F2DC0E"/>
<path d="M16.6666 35.4167C16.6666 27.5 23.3333 20.8333 31.25 20.8333C39.1666 20.8333 45.8333 27.5 45.8333 35.4167C45.8333 43.3333 39.1666 50 31.25 50C23.3333 50 16.6666 43.3333 16.6666 35.4167ZM31.25 58.3333C10.8333 58.3333 4.16663 75 4.16663 75V83.3333H58.3333V75C58.3333 75 51.6666 58.3333 31.25 58.3333Z" fill="#F2DC0E"/>
</svg>
