<svg width="101" height="101" viewBox="0 0 101 101" fill="none" xmlns="http://www.w3.org/2000/svg">
<path d="M95.0556 16.5915C88.1436 15.7874 81.3513 14.3453 74.7956 12.2902C66.8244 9.70939 59.8496 6.55507 56.1961 2.54048L55.864 2.25373L55.5319 1.96697C55.1997 1.96697 55.1997 1.68022 54.8676 1.68022C54.5355 1.68022 54.5355 1.39346 54.2033 1.39346C53.8712 1.39346 53.8712 1.1067 53.5391 1.1067C53.2069 1.1067 53.2069 0.819946 52.8748 0.819946H48.8892C48.5571 0.819946 48.5571 0.819946 48.2249 1.1067C47.8928 1.1067 47.8928 1.1067 47.5607 1.39346C47.2285 1.39346 47.2285 1.68022 46.8964 1.68022C46.5643 1.68022 46.5643 1.96697 46.2321 1.96697L45.9 2.25373L45.5679 2.54048C41.5823 6.55507 34.6075 9.70939 26.9685 12.2902C20.3765 14.2408 13.5963 15.6803 6.70837 16.5915C5.0772 16.7619 3.57277 17.4368 2.47362 18.4913C1.37446 19.5457 0.755025 20.9082 0.72998 22.3267C0.72998 36.6645 1.72638 52.7228 8.0369 66.7739C12.3546 76.2369 18.9973 84.8396 28.297 91.1482C31.5044 93.4883 35.0835 95.4196 38.9252 96.8833C43.243 98.8906 48.5571 102.045 53.5391 100.324C66.1601 96.3098 78.449 88.5674 86.0881 78.8177C89.0457 74.9541 91.4964 70.8185 93.395 66.4871C99.7055 52.4361 100.702 36.3777 100.702 22.0399C101.034 19.4591 98.377 17.1651 95.0556 16.5915ZM81.4382 62.7593C76.4562 73.9428 67.4886 83.4058 51.2141 89.1409C34.9396 83.4058 25.9721 73.9428 20.9901 62.7593C16.3402 52.1493 15.0117 39.8188 14.6795 27.2015C20.55 26.258 26.3249 24.9157 31.9504 23.1869C38.5931 21.1796 45.5679 18.3121 51.2141 14.2975C56.8604 18.3121 63.8352 21.1796 70.4778 23.1869C76.4562 25.1942 82.7667 26.3413 87.7487 27.2015C87.4166 39.8188 86.0881 52.1493 81.4382 62.7593ZM48.5571 54.7301L35.2718 46.4142C32.2826 44.6937 28.297 44.9804 25.9721 47.5612C23.9793 50.142 24.3114 53.5831 27.3006 55.5904L45.5679 67.0607C49.2213 69.3547 52.8748 67.9209 55.5319 65.0534C62.8388 57.3109 70.4778 49.5685 77.7847 41.8261C80.1097 39.2453 79.7775 35.8042 76.7883 33.7969C73.7992 31.7896 69.8136 32.0764 67.4886 34.6572L48.5571 54.7301Z" fill="#F2DC0E"/>
</svg>
