<svg xmlns="http://www.w3.org/2000/svg" xmlns:xlink="http://www.w3.org/1999/xlink" version="1.1" width="1000" height="1000" viewBox="0 0 1000 1000" xml:space="preserve">
<desc>Created with Fabric.js 3.5.0</desc>
<defs>
</defs>
<rect x="0" y="0" width="100%" height="100%" fill="rgba(255,255,255,0)"/>
<g transform="matrix(28.4091 0 0 28.4091 500.0001 500.0001)" id="800768">
<g style="" vector-effect="non-scaling-stroke">
		<g transform="matrix(1 0 0 1 0 0)" id="998703">
<path style="stroke: none; stroke-width: 1; stroke-dasharray: none; stroke-linecap: butt; stroke-dashoffset: 0; stroke-linejoin: miter; stroke-miterlimit: 4; is-custom-font: none; font-file-url: none; fill: rgb(242,220,14); fill-rule: nonzero; opacity: 1;" transform=" translate(-16, -16)" d="M 16 31 A 15 15 0 1 1 31 16 A 15 15 0 0 1 16 31 Z M 16 3 A 13 13 0 1 0 29 16 A 13 13 0 0 0 16 3 Z" stroke-linecap="round"/>
</g>
		<g transform="matrix(1 0 0 1 2.33 -1.17)" id="886828">
<path style="stroke: none; stroke-width: 1; stroke-dasharray: none; stroke-linecap: butt; stroke-dashoffset: 0; stroke-linejoin: miter; stroke-miterlimit: 4; is-custom-font: none; font-file-url: none; fill: rgb(242,220,14); fill-rule: nonzero; opacity: 1;" transform=" translate(-18.33, -14.83)" d="M 20.24 21.66 l -4.95 -4.95 A 1 1 0 0 1 15 16 V 8 h 2 v 7.59 l 4.66 4.65 Z" stroke-linecap="round"/>
</g>
</g>
</g>
</svg>