<svg width="40" height="40" viewBox="0 0 40 40" fill="none" xmlns="http://www.w3.org/2000/svg">
<path d="M30.9816 19.9037H9.01839C5.52731 19.9037 2.69733 22.7365 2.69733 26.2269V31.3076C2.69733 34.7979 5.52731 37.63 9.01839 37.63H30.9816C34.472 37.63 37.3027 34.7979 37.3027 31.3076V26.2269C37.3027 22.7365 34.472 19.9037 30.9816 19.9037ZM13.6327 23.859H11.5908V34.0049H9.61811V23.859H7.57765V22.1332H13.6327V23.859ZM19.4006 34.0049H17.6508V33.0453C17.3256 33.4002 16.9904 33.6712 16.6405 33.8539C16.2905 34.0444 15.9526 34.1333 15.6238 34.1333C15.2174 34.1333 14.9154 34.0042 14.7087 33.7417C14.5055 33.48 14.4018 33.0919 14.4018 32.5677V25.2461H16.1515V31.9651C16.1515 32.1726 16.1904 32.3214 16.2602 32.4139C16.3357 32.5091 16.4556 32.5529 16.62 32.5529C16.747 32.5529 16.9107 32.4922 17.1076 32.3694C17.3058 32.2452 17.4865 32.09 17.6508 31.8981V25.2454H19.4006V34.0049ZM25.7534 32.1966C25.7534 32.8153 25.6159 33.2909 25.3414 33.6225C25.0683 33.9541 24.669 34.1171 24.1518 34.1171C23.8075 34.1171 23.5013 34.055 23.2353 33.9266C22.9679 33.7996 22.716 33.6041 22.4867 33.3332V34.0042H20.7158V22.1332H22.4867V25.9566C22.7238 25.6921 22.9743 25.4867 23.236 25.3492C23.5034 25.2088 23.7722 25.141 24.0446 25.141C24.5984 25.141 25.0204 25.3259 25.3125 25.6991C25.606 26.0723 25.752 26.6192 25.752 27.336V32.1966H25.7534ZM31.8233 29.8365H28.4748V31.4868C28.4748 31.9468 28.5312 32.2671 28.6455 32.4456C28.7626 32.6248 28.9595 32.7123 29.2396 32.7123C29.5303 32.7123 29.7314 32.6368 29.8485 32.4858C29.9614 32.3334 30.022 32.0018 30.022 31.4868V31.0881H31.8233V31.5376C31.8233 32.435 31.6053 33.1117 31.1629 33.5682C30.7276 34.0204 30.0714 34.2448 29.1994 34.2448C28.4141 34.2448 27.7953 34.0056 27.3459 33.5244C26.8978 33.0461 26.6692 32.3821 26.6692 31.5383V27.6041C26.6692 26.847 26.919 26.224 27.415 25.7464C27.9096 25.2687 28.5467 25.0302 29.3306 25.0302C30.1328 25.0302 30.7488 25.2511 31.1784 25.6942C31.6081 26.138 31.8233 26.773 31.8233 27.6034V29.8365Z" fill="#F2DC0E"/>
<path d="M29.2565 26.5613C28.9771 26.5613 28.7781 26.6396 28.6568 26.8033C28.5326 26.9571 28.4748 27.2203 28.4748 27.5879V28.4734H30.022V27.5879C30.022 27.2203 29.96 26.9564 29.8372 26.8033C29.7194 26.6403 29.5225 26.5613 29.2565 26.5613Z" fill="#F2DC0E"/>
<path d="M23.2191 26.5317C23.0949 26.5317 22.9693 26.5592 22.8487 26.6163C22.7259 26.6721 22.606 26.7645 22.4874 26.8845V32.3405C22.6278 32.4816 22.7668 32.5903 22.9023 32.6524C23.0371 32.7123 23.1768 32.7462 23.3256 32.7462C23.5408 32.7462 23.6975 32.6841 23.7983 32.5585C23.8978 32.4343 23.9486 32.2361 23.9486 31.956V27.4327C23.9486 27.1349 23.8894 26.912 23.7652 26.7589C23.6368 26.6079 23.4547 26.5317 23.2191 26.5317Z" fill="#F2DC0E"/>
<path d="M11.8942 16.8613H14.1125V11.4356L16.6955 3.78177H14.4406L13.0676 9.00993H12.9279L11.4864 3.78177H9.25192L11.8942 11.6797V16.8613Z" fill="#F2DC0E"/>
<path d="M19.7012 17.1047C20.5972 17.1047 21.3 16.8698 21.8122 16.3999C22.3209 15.9279 22.5756 15.2837 22.5756 14.4582V9.47417C22.5756 8.73969 22.3153 8.13503 21.7967 7.66866C21.2746 7.2037 20.6057 6.96945 19.7901 6.96945C18.894 6.96945 18.1807 7.191 17.6501 7.63338C17.121 8.07576 16.855 8.66913 16.855 9.41914V14.4201C16.855 15.2407 17.1139 15.8898 17.6311 16.3766C18.1483 16.8613 18.8397 17.1047 19.7012 17.1047ZM18.8842 9.34576C18.8842 9.13621 18.9596 8.96688 19.1071 8.83423C19.2602 8.70441 19.4542 8.64162 19.6955 8.64162C19.9559 8.64162 20.1669 8.70441 20.3277 8.83423C20.4879 8.96688 20.5676 9.13621 20.5676 9.34576V14.6028C20.5676 14.8604 20.4893 15.065 20.3305 15.2124C20.1732 15.3606 19.9615 15.4333 19.6955 15.4333C19.4352 15.4333 19.2341 15.3627 19.093 15.2146C18.954 15.0699 18.8834 14.8667 18.8834 14.6021L18.8842 9.34576Z" fill="#F2DC0E"/>
<path d="M25.5509 17.0025C25.9214 17.0025 26.3016 16.8966 26.6932 16.6934C27.089 16.4874 27.4679 16.1861 27.8285 15.7931V16.862H29.7991V7.21359H27.8285V14.5372C27.645 14.7468 27.4411 14.919 27.2224 15.0558C26.9994 15.1913 26.816 15.259 26.6714 15.259C26.4865 15.259 26.3503 15.2082 26.2706 15.1031C26.1895 15.0022 26.1436 14.8371 26.1436 14.6106V7.21359H24.1758V15.2774C24.1758 15.8524 24.2915 16.2821 24.5201 16.5671C24.753 16.8564 25.093 17.0025 25.5509 17.0025Z" fill="#F2DC0E"/>
</svg>
